<svg width="320" height="267" viewBox="0 0 320 267" fill="none" xmlns="http://www.w3.org/2000/svg">
<rect width="320" height="267" fill="#A07B50"/>
<mask id="path-2-inside-1" fill="white">
<path d="M124.903 70.452C117.571 70.452 111.607 76.4168 111.607 83.7484C111.607 90.5486 116.739 96.1692 123.333 96.9489V107.2C123.333 108.068 124.036 108.771 124.903 108.771C125.771 108.771 126.474 108.068 126.474 107.2V96.9489C133.068 96.1692 138.2 90.5484 138.2 83.7484C138.2 76.4168 132.235 70.452 124.903 70.452ZM124.903 93.904C119.303 93.904 114.748 89.3482 114.748 83.7484C114.748 78.1487 119.303 73.5928 124.903 73.5928C130.503 73.5928 135.059 78.1487 135.059 83.7484C135.059 89.3482 130.503 93.904 124.903 93.904Z"/>
<path d="M124.903 77.1527C121.266 77.1527 118.307 80.1117 118.307 83.7487C118.307 87.3856 121.266 90.3446 124.903 90.3446C128.54 90.3446 131.499 87.3856 131.499 83.7487C131.499 80.1117 128.54 77.1527 124.903 77.1527ZM124.903 87.2036C122.998 87.2036 121.448 85.6536 121.448 83.7487C121.448 81.8438 122.998 80.2938 124.903 80.2938C126.808 80.2938 128.358 81.8438 128.358 83.7487C128.358 85.6536 126.808 87.2036 124.903 87.2036Z"/>
<path d="M207.823 84.6908H206.881V57.7838C206.881 53.2231 203.17 49.5128 198.61 49.5128H195.155V48.5705C195.155 47.7032 194.452 47 193.584 47H189.396C187.145 47 185.313 48.8317 185.313 51.0831C185.313 53.3345 187.145 55.1663 189.396 55.1663H193.584C194.452 55.1663 195.155 54.463 195.155 53.5958V52.6534H198.61C201.438 52.6534 203.74 54.955 203.74 57.7836V84.6905H202.797C201.93 84.6905 201.227 85.3938 201.227 86.2611V88.7737C201.227 95.759 195.544 101.442 188.559 101.442H168.457C161.472 101.442 155.789 95.759 155.789 88.7737V86.2611C155.789 85.3938 155.085 84.6905 154.218 84.6905H153.276V57.7838C153.276 54.9552 155.577 52.6537 158.406 52.6537H161.861V53.596C161.861 54.4633 162.564 55.1665 163.431 55.1665H167.619C169.871 55.1665 171.702 53.3347 171.702 51.0833C171.703 48.8317 169.871 47 167.619 47H163.431C162.564 47 161.861 47.7032 161.861 48.5705V49.5128H158.406C153.845 49.5128 150.135 53.2233 150.135 57.7838V84.6908H149.193C148.325 84.6908 147.622 85.394 147.622 86.2613V88.7739C147.622 100.262 156.969 109.609 168.457 109.609H174.425V117.251C174.425 118.119 175.128 118.822 175.995 118.822H176.938V127.302C176.938 140.291 166.37 150.859 153.381 150.859H150.031C137.041 150.859 126.474 140.291 126.474 127.302V114.808C126.474 113.941 125.771 113.238 124.903 113.238C124.036 113.238 123.333 113.941 123.333 114.808V127.302C123.333 142.024 135.309 154 150.031 154H153.381C168.102 154 180.079 142.024 180.079 127.302V118.822H181.021C181.888 118.822 182.591 118.119 182.591 117.251V109.609H188.559C200.047 109.609 209.394 100.262 209.394 88.7739V86.2613C209.393 85.394 208.69 84.6908 207.823 84.6908ZM192.014 52.0254H189.396C188.877 52.0254 188.454 51.6027 188.454 51.0831C188.454 50.5636 188.877 50.1408 189.396 50.1408H192.014V52.0254ZM165.002 50.1408H167.619C168.139 50.1408 168.562 50.5636 168.562 51.0831C168.562 51.6027 168.139 52.0254 167.619 52.0254H165.002V50.1408ZM206.253 88.7739C206.253 98.5301 198.315 106.468 188.559 106.468H181.021C180.153 106.468 179.45 107.171 179.45 108.038V115.681H177.566V108.038C177.566 107.171 176.863 106.468 175.995 106.468H168.457C158.701 106.468 150.763 98.5301 150.763 88.7739V87.8316H152.648V88.7739C152.648 97.4913 159.74 104.583 168.457 104.583H188.559C197.277 104.583 204.368 97.4913 204.368 88.7739V87.8316H206.253L206.253 88.7739Z"/>
<path d="M178.508 72.1272C171.407 72.1272 165.63 77.9041 165.63 85.0048C165.63 91.495 170.444 95.3698 178.508 95.3698C186.571 95.3698 191.385 91.495 191.385 85.0048C191.386 77.9041 185.609 72.1272 178.508 72.1272ZM178.508 92.229C174.871 92.229 168.771 91.2904 168.771 85.0048C168.771 79.636 173.139 75.268 178.508 75.268C183.877 75.268 188.245 79.636 188.245 85.0048C188.245 91.2904 182.144 92.229 178.508 92.229Z"/>
<path d="M172.226 59.5636C169.016 59.5636 166.887 63.5334 166.887 66.1595C166.887 69.1039 169.282 71.4991 172.226 71.4991C175.171 71.4991 177.566 69.1039 177.566 66.1595C177.565 63.5336 175.436 59.5636 172.226 59.5636ZM172.226 68.3583C171.014 68.3583 170.027 67.3721 170.027 66.1595C170.027 64.6743 171.281 62.7046 172.226 62.7046C173.171 62.7046 174.425 64.6743 174.425 66.1595C174.425 67.3718 173.438 68.3583 172.226 68.3583Z"/>
<path d="M184.79 59.5636C181.58 59.5636 179.45 63.5334 179.45 66.1595C179.45 69.1039 181.845 71.4991 184.79 71.4991C187.734 71.4991 190.129 69.1039 190.129 66.1595C190.129 63.5336 187.999 59.5636 184.79 59.5636ZM184.79 68.3583C183.577 68.3583 182.591 67.3721 182.591 66.1595C182.591 64.6743 183.844 62.7046 184.79 62.7046C185.735 62.7046 186.988 64.6743 186.988 66.1595C186.988 67.3718 186.002 68.3583 184.79 68.3583Z"/>
<path d="M194.841 67.1018C191.631 67.1018 189.501 71.0716 189.501 73.6977C189.501 76.6421 191.896 79.0373 194.841 79.0373C197.785 79.0373 200.18 76.6421 200.18 73.6977C200.18 71.0716 198.05 67.1018 194.841 67.1018ZM194.841 75.8963C193.628 75.8963 192.642 74.9101 192.642 73.6975C192.642 72.2123 193.895 70.2426 194.841 70.2426C195.786 70.2426 197.039 72.2123 197.039 73.6975C197.039 74.9101 196.053 75.8963 194.841 75.8963Z"/>
<path d="M162.175 67.1018C158.965 67.1018 156.836 71.0716 156.836 73.6977C156.836 76.6421 159.231 79.0373 162.175 79.0373C165.12 79.0373 167.515 76.6421 167.515 73.6977C167.515 71.0716 165.385 67.1018 162.175 67.1018ZM162.175 75.8963C160.963 75.8963 159.977 74.9101 159.977 73.6975C159.977 72.2123 161.23 70.2426 162.175 70.2426C163.12 70.2426 164.374 72.2123 164.374 73.6975C164.374 74.9101 163.388 75.8963 162.175 75.8963Z"/>
</mask>
<path d="M124.903 70.452C117.571 70.452 111.607 76.4168 111.607 83.7484C111.607 90.5486 116.739 96.1692 123.333 96.9489V107.2C123.333 108.068 124.036 108.771 124.903 108.771C125.771 108.771 126.474 108.068 126.474 107.2V96.9489C133.068 96.1692 138.2 90.5484 138.2 83.7484C138.2 76.4168 132.235 70.452 124.903 70.452ZM124.903 93.904C119.303 93.904 114.748 89.3482 114.748 83.7484C114.748 78.1487 119.303 73.5928 124.903 73.5928C130.503 73.5928 135.059 78.1487 135.059 83.7484C135.059 89.3482 130.503 93.904 124.903 93.904Z" fill="white"/>
<path d="M124.903 77.1527C121.266 77.1527 118.307 80.1117 118.307 83.7487C118.307 87.3856 121.266 90.3446 124.903 90.3446C128.54 90.3446 131.499 87.3856 131.499 83.7487C131.499 80.1117 128.54 77.1527 124.903 77.1527ZM124.903 87.2036C122.998 87.2036 121.448 85.6536 121.448 83.7487C121.448 81.8438 122.998 80.2938 124.903 80.2938C126.808 80.2938 128.358 81.8438 128.358 83.7487C128.358 85.6536 126.808 87.2036 124.903 87.2036Z" fill="white"/>
<path d="M207.823 84.6908H206.881V57.7838C206.881 53.2231 203.17 49.5128 198.61 49.5128H195.155V48.5705C195.155 47.7032 194.452 47 193.584 47H189.396C187.145 47 185.313 48.8317 185.313 51.0831C185.313 53.3345 187.145 55.1663 189.396 55.1663H193.584C194.452 55.1663 195.155 54.463 195.155 53.5958V52.6534H198.61C201.438 52.6534 203.74 54.955 203.74 57.7836V84.6905H202.797C201.93 84.6905 201.227 85.3938 201.227 86.2611V88.7737C201.227 95.759 195.544 101.442 188.559 101.442H168.457C161.472 101.442 155.789 95.759 155.789 88.7737V86.2611C155.789 85.3938 155.085 84.6905 154.218 84.6905H153.276V57.7838C153.276 54.9552 155.577 52.6537 158.406 52.6537H161.861V53.596C161.861 54.4633 162.564 55.1665 163.431 55.1665H167.619C169.871 55.1665 171.702 53.3347 171.702 51.0833C171.703 48.8317 169.871 47 167.619 47H163.431C162.564 47 161.861 47.7032 161.861 48.5705V49.5128H158.406C153.845 49.5128 150.135 53.2233 150.135 57.7838V84.6908H149.193C148.325 84.6908 147.622 85.394 147.622 86.2613V88.7739C147.622 100.262 156.969 109.609 168.457 109.609H174.425V117.251C174.425 118.119 175.128 118.822 175.995 118.822H176.938V127.302C176.938 140.291 166.37 150.859 153.381 150.859H150.031C137.041 150.859 126.474 140.291 126.474 127.302V114.808C126.474 113.941 125.771 113.238 124.903 113.238C124.036 113.238 123.333 113.941 123.333 114.808V127.302C123.333 142.024 135.309 154 150.031 154H153.381C168.102 154 180.079 142.024 180.079 127.302V118.822H181.021C181.888 118.822 182.591 118.119 182.591 117.251V109.609H188.559C200.047 109.609 209.394 100.262 209.394 88.7739V86.2613C209.393 85.394 208.69 84.6908 207.823 84.6908ZM192.014 52.0254H189.396C188.877 52.0254 188.454 51.6027 188.454 51.0831C188.454 50.5636 188.877 50.1408 189.396 50.1408H192.014V52.0254ZM165.002 50.1408H167.619C168.139 50.1408 168.562 50.5636 168.562 51.0831C168.562 51.6027 168.139 52.0254 167.619 52.0254H165.002V50.1408ZM206.253 88.7739C206.253 98.5301 198.315 106.468 188.559 106.468H181.021C180.153 106.468 179.45 107.171 179.45 108.038V115.681H177.566V108.038C177.566 107.171 176.863 106.468 175.995 106.468H168.457C158.701 106.468 150.763 98.5301 150.763 88.7739V87.8316H152.648V88.7739C152.648 97.4913 159.74 104.583 168.457 104.583H188.559C197.277 104.583 204.368 97.4913 204.368 88.7739V87.8316H206.253L206.253 88.7739Z" fill="white"/>
<path d="M178.508 72.1272C171.407 72.1272 165.63 77.9041 165.63 85.0048C165.63 91.495 170.444 95.3698 178.508 95.3698C186.571 95.3698 191.385 91.495 191.385 85.0048C191.386 77.9041 185.609 72.1272 178.508 72.1272ZM178.508 92.229C174.871 92.229 168.771 91.2904 168.771 85.0048C168.771 79.636 173.139 75.268 178.508 75.268C183.877 75.268 188.245 79.636 188.245 85.0048C188.245 91.2904 182.144 92.229 178.508 92.229Z" fill="white"/>
<path d="M172.226 59.5636C169.016 59.5636 166.887 63.5334 166.887 66.1595C166.887 69.1039 169.282 71.4991 172.226 71.4991C175.171 71.4991 177.566 69.1039 177.566 66.1595C177.565 63.5336 175.436 59.5636 172.226 59.5636ZM172.226 68.3583C171.014 68.3583 170.027 67.3721 170.027 66.1595C170.027 64.6743 171.281 62.7046 172.226 62.7046C173.171 62.7046 174.425 64.6743 174.425 66.1595C174.425 67.3718 173.438 68.3583 172.226 68.3583Z" fill="white"/>
<path d="M184.79 59.5636C181.58 59.5636 179.45 63.5334 179.45 66.1595C179.45 69.1039 181.845 71.4991 184.79 71.4991C187.734 71.4991 190.129 69.1039 190.129 66.1595C190.129 63.5336 187.999 59.5636 184.79 59.5636ZM184.79 68.3583C183.577 68.3583 182.591 67.3721 182.591 66.1595C182.591 64.6743 183.844 62.7046 184.79 62.7046C185.735 62.7046 186.988 64.6743 186.988 66.1595C186.988 67.3718 186.002 68.3583 184.79 68.3583Z" fill="white"/>
<path d="M194.841 67.1018C191.631 67.1018 189.501 71.0716 189.501 73.6977C189.501 76.6421 191.896 79.0373 194.841 79.0373C197.785 79.0373 200.18 76.6421 200.18 73.6977C200.18 71.0716 198.05 67.1018 194.841 67.1018ZM194.841 75.8963C193.628 75.8963 192.642 74.9101 192.642 73.6975C192.642 72.2123 193.895 70.2426 194.841 70.2426C195.786 70.2426 197.039 72.2123 197.039 73.6975C197.039 74.9101 196.053 75.8963 194.841 75.8963Z" fill="white"/>
<path d="M162.175 67.1018C158.965 67.1018 156.836 71.0716 156.836 73.6977C156.836 76.6421 159.231 79.0373 162.175 79.0373C165.12 79.0373 167.515 76.6421 167.515 73.6977C167.515 71.0716 165.385 67.1018 162.175 67.1018ZM162.175 75.8963C160.963 75.8963 159.977 74.9101 159.977 73.6975C159.977 72.2123 161.23 70.2426 162.175 70.2426C163.12 70.2426 164.374 72.2123 164.374 73.6975C164.374 74.9101 163.388 75.8963 162.175 75.8963Z" fill="white"/>
<path d="M124.903 70.452C117.571 70.452 111.607 76.4168 111.607 83.7484C111.607 90.5486 116.739 96.1692 123.333 96.9489V107.2C123.333 108.068 124.036 108.771 124.903 108.771C125.771 108.771 126.474 108.068 126.474 107.2V96.9489C133.068 96.1692 138.2 90.5484 138.2 83.7484C138.2 76.4168 132.235 70.452 124.903 70.452ZM124.903 93.904C119.303 93.904 114.748 89.3482 114.748 83.7484C114.748 78.1487 119.303 73.5928 124.903 73.5928C130.503 73.5928 135.059 78.1487 135.059 83.7484C135.059 89.3482 130.503 93.904 124.903 93.904Z" stroke="#A07B50" stroke-width="2" mask="url(#path-2-inside-1)"/>
<path d="M124.903 77.1527C121.266 77.1527 118.307 80.1117 118.307 83.7487C118.307 87.3856 121.266 90.3446 124.903 90.3446C128.54 90.3446 131.499 87.3856 131.499 83.7487C131.499 80.1117 128.54 77.1527 124.903 77.1527ZM124.903 87.2036C122.998 87.2036 121.448 85.6536 121.448 83.7487C121.448 81.8438 122.998 80.2938 124.903 80.2938C126.808 80.2938 128.358 81.8438 128.358 83.7487C128.358 85.6536 126.808 87.2036 124.903 87.2036Z" stroke="#A07B50" stroke-width="2" mask="url(#path-2-inside-1)"/>
<path d="M207.823 84.6908H206.881V57.7838C206.881 53.2231 203.17 49.5128 198.61 49.5128H195.155V48.5705C195.155 47.7032 194.452 47 193.584 47H189.396C187.145 47 185.313 48.8317 185.313 51.0831C185.313 53.3345 187.145 55.1663 189.396 55.1663H193.584C194.452 55.1663 195.155 54.463 195.155 53.5958V52.6534H198.61C201.438 52.6534 203.74 54.955 203.74 57.7836V84.6905H202.797C201.93 84.6905 201.227 85.3938 201.227 86.2611V88.7737C201.227 95.759 195.544 101.442 188.559 101.442H168.457C161.472 101.442 155.789 95.759 155.789 88.7737V86.2611C155.789 85.3938 155.085 84.6905 154.218 84.6905H153.276V57.7838C153.276 54.9552 155.577 52.6537 158.406 52.6537H161.861V53.596C161.861 54.4633 162.564 55.1665 163.431 55.1665H167.619C169.871 55.1665 171.702 53.3347 171.702 51.0833C171.703 48.8317 169.871 47 167.619 47H163.431C162.564 47 161.861 47.7032 161.861 48.5705V49.5128H158.406C153.845 49.5128 150.135 53.2233 150.135 57.7838V84.6908H149.193C148.325 84.6908 147.622 85.394 147.622 86.2613V88.7739C147.622 100.262 156.969 109.609 168.457 109.609H174.425V117.251C174.425 118.119 175.128 118.822 175.995 118.822H176.938V127.302C176.938 140.291 166.37 150.859 153.381 150.859H150.031C137.041 150.859 126.474 140.291 126.474 127.302V114.808C126.474 113.941 125.771 113.238 124.903 113.238C124.036 113.238 123.333 113.941 123.333 114.808V127.302C123.333 142.024 135.309 154 150.031 154H153.381C168.102 154 180.079 142.024 180.079 127.302V118.822H181.021C181.888 118.822 182.591 118.119 182.591 117.251V109.609H188.559C200.047 109.609 209.394 100.262 209.394 88.7739V86.2613C209.393 85.394 208.69 84.6908 207.823 84.6908ZM192.014 52.0254H189.396C188.877 52.0254 188.454 51.6027 188.454 51.0831C188.454 50.5636 188.877 50.1408 189.396 50.1408H192.014V52.0254ZM165.002 50.1408H167.619C168.139 50.1408 168.562 50.5636 168.562 51.0831C168.562 51.6027 168.139 52.0254 167.619 52.0254H165.002V50.1408ZM206.253 88.7739C206.253 98.5301 198.315 106.468 188.559 106.468H181.021C180.153 106.468 179.45 107.171 179.45 108.038V115.681H177.566V108.038C177.566 107.171 176.863 106.468 175.995 106.468H168.457C158.701 106.468 150.763 98.5301 150.763 88.7739V87.8316H152.648V88.7739C152.648 97.4913 159.74 104.583 168.457 104.583H188.559C197.277 104.583 204.368 97.4913 204.368 88.7739V87.8316H206.253L206.253 88.7739Z" stroke="#A07B50" stroke-width="2" mask="url(#path-2-inside-1)"/>
<path d="M178.508 72.1272C171.407 72.1272 165.63 77.9041 165.63 85.0048C165.63 91.495 170.444 95.3698 178.508 95.3698C186.571 95.3698 191.385 91.495 191.385 85.0048C191.386 77.9041 185.609 72.1272 178.508 72.1272ZM178.508 92.229C174.871 92.229 168.771 91.2904 168.771 85.0048C168.771 79.636 173.139 75.268 178.508 75.268C183.877 75.268 188.245 79.636 188.245 85.0048C188.245 91.2904 182.144 92.229 178.508 92.229Z" stroke="#A07B50" stroke-width="2" mask="url(#path-2-inside-1)"/>
<path d="M172.226 59.5636C169.016 59.5636 166.887 63.5334 166.887 66.1595C166.887 69.1039 169.282 71.4991 172.226 71.4991C175.171 71.4991 177.566 69.1039 177.566 66.1595C177.565 63.5336 175.436 59.5636 172.226 59.5636ZM172.226 68.3583C171.014 68.3583 170.027 67.3721 170.027 66.1595C170.027 64.6743 171.281 62.7046 172.226 62.7046C173.171 62.7046 174.425 64.6743 174.425 66.1595C174.425 67.3718 173.438 68.3583 172.226 68.3583Z" stroke="#A07B50" stroke-width="2" mask="url(#path-2-inside-1)"/>
<path d="M184.79 59.5636C181.58 59.5636 179.45 63.5334 179.45 66.1595C179.45 69.1039 181.845 71.4991 184.79 71.4991C187.734 71.4991 190.129 69.1039 190.129 66.1595C190.129 63.5336 187.999 59.5636 184.79 59.5636ZM184.79 68.3583C183.577 68.3583 182.591 67.3721 182.591 66.1595C182.591 64.6743 183.844 62.7046 184.79 62.7046C185.735 62.7046 186.988 64.6743 186.988 66.1595C186.988 67.3718 186.002 68.3583 184.79 68.3583Z" stroke="#A07B50" stroke-width="2" mask="url(#path-2-inside-1)"/>
<path d="M194.841 67.1018C191.631 67.1018 189.501 71.0716 189.501 73.6977C189.501 76.6421 191.896 79.0373 194.841 79.0373C197.785 79.0373 200.18 76.6421 200.18 73.6977C200.18 71.0716 198.05 67.1018 194.841 67.1018ZM194.841 75.8963C193.628 75.8963 192.642 74.9101 192.642 73.6975C192.642 72.2123 193.895 70.2426 194.841 70.2426C195.786 70.2426 197.039 72.2123 197.039 73.6975C197.039 74.9101 196.053 75.8963 194.841 75.8963Z" stroke="#A07B50" stroke-width="2" mask="url(#path-2-inside-1)"/>
<path d="M162.175 67.1018C158.965 67.1018 156.836 71.0716 156.836 73.6977C156.836 76.6421 159.231 79.0373 162.175 79.0373C165.12 79.0373 167.515 76.6421 167.515 73.6977C167.515 71.0716 165.385 67.1018 162.175 67.1018ZM162.175 75.8963C160.963 75.8963 159.977 74.9101 159.977 73.6975C159.977 72.2123 161.23 70.2426 162.175 70.2426C163.12 70.2426 164.374 72.2123 164.374 73.6975C164.374 74.9101 163.388 75.8963 162.175 75.8963Z" stroke="#A07B50" stroke-width="2" mask="url(#path-2-inside-1)"/>
</svg>
